# xmcd
#
# Track frame offsets:
#	150
#	11113
#	20295
#	32523
#	45095
#	58165
#	68795
#	78328
#	91230
#	99265
#	108373
#	119355
#	130548
#	142688
#	153095
#	164423
#
# Disc length: 2365 seconds
#
# Revision: 0
# Processed by: cddbd v1.5.2PL0 Copyright (c) Steve Scherf et al.
# Submitted via: audiograbber 1.83.01
#
DISCID=b3093b10
DTITLE=Various Artist - The Nashville Dream - Disc 1
DYEAR=1992
DGENRE=Country
TTITLE0=Roy Orbison - Only The Lonely
TTITLE1=The Everly Brothers - When Will I Be Loved
TTITLE2=Patsy Cline - Crazy
TTITLE3=Buddy Holly - Raining In My Heart
TTITLE4=Hank Williams - Hey Good Looking
TTITLE5=Ricky Nelson - Travellin' Man
TTITLE6=Don Gibson - Take These Chains From My Heart
TTITLE7=Jim Reeves - Distant Drums
TTITLE8=John D Loudermilk - Language Of Love
TTITLE9=The Crickets - When You Ask About Love
TTITLE10=Guy Mitchel - lSinging The Blues
TTITLE11=Roy Orbison - Blue Bayou
TTITLE12=Hank Williams - Your Cheatin' Heart
TTITLE13=The Everly Brothers - Bye Bye Love
TTITLE14=Patsy Cline - Sweet dreams
TTITLE15=Jerry Lee Lewis - You Win Again
EXTD=Input by Bill (whall@netcomuk.co.uk)
EXTT0=
EXTT1=
EXTT2=
EXTT3=
EXTT4=
EXTT5=
EXTT6=
EXTT7=
EXTT8=
EXTT9=
EXTT10=
EXTT11=
EXTT12=
EXTT13=
EXTT14=
EXTT15=
PLAYORDER=
